<mxfile host="app.diagrams.net" modified="2024-03-22T17:58:26.643Z" agent="Mozilla/5.0 (X11; Linux x86_64; rv:109.0) Gecko/20100101 Firefox/114.0" etag="FzwzzVth2ps6iDoAd9IY" version="24.0.7" type="device">
  <diagram name="PÃ¡gina-1" id="MRNSPl1jp9tP0pJB1Z9j">
    <mxGraphModel dx="2868" dy="1578" grid="1" gridSize="10" guides="1" tooltips="1" connect="1" arrows="1" fold="1" page="1" pageScale="1" pageWidth="827" pageHeight="1169" background="#cafeab" math="0" shadow="0">
      <root>
        <mxCell id="0" />
        <mxCell id="1" parent="0" />
        <mxCell id="5tO343UlVwhr0o6HKUXY-1" value="&lt;font style=&quot;font-size: 25px;&quot;&gt;1&lt;/font&gt;" style="ellipse;whiteSpace=wrap;html=1;aspect=fixed;" vertex="1" parent="1">
          <mxGeometry x="440" y="120" width="80" height="80" as="geometry" />
        </mxCell>
        <mxCell id="5tO343UlVwhr0o6HKUXY-12" style="edgeStyle=orthogonalEdgeStyle;rounded=0;orthogonalLoop=1;jettySize=auto;html=1;exitX=0.5;exitY=1;exitDx=0;exitDy=0;" edge="1" parent="1" source="5tO343UlVwhr0o6HKUXY-2" target="5tO343UlVwhr0o6HKUXY-3">
          <mxGeometry relative="1" as="geometry" />
        </mxCell>
        <mxCell id="5tO343UlVwhr0o6HKUXY-34" style="edgeStyle=orthogonalEdgeStyle;rounded=0;orthogonalLoop=1;jettySize=auto;html=1;exitX=1;exitY=0.5;exitDx=0;exitDy=0;entryX=0;entryY=0.5;entryDx=0;entryDy=0;startArrow=classic;startFill=1;endArrow=none;endFill=0;" edge="1" parent="1" source="5tO343UlVwhr0o6HKUXY-2" target="5tO343UlVwhr0o6HKUXY-1">
          <mxGeometry relative="1" as="geometry" />
        </mxCell>
        <mxCell id="5tO343UlVwhr0o6HKUXY-2" value="&lt;font style=&quot;font-size: 25px;&quot;&gt;2&lt;/font&gt;" style="ellipse;whiteSpace=wrap;html=1;aspect=fixed;" vertex="1" parent="1">
          <mxGeometry x="320" y="120" width="80" height="80" as="geometry" />
        </mxCell>
        <mxCell id="5tO343UlVwhr0o6HKUXY-13" style="edgeStyle=orthogonalEdgeStyle;rounded=0;orthogonalLoop=1;jettySize=auto;html=1;exitX=0.5;exitY=1;exitDx=0;exitDy=0;entryX=0.5;entryY=0;entryDx=0;entryDy=0;" edge="1" parent="1" source="5tO343UlVwhr0o6HKUXY-3" target="5tO343UlVwhr0o6HKUXY-4">
          <mxGeometry relative="1" as="geometry" />
        </mxCell>
        <mxCell id="5tO343UlVwhr0o6HKUXY-35" style="edgeStyle=orthogonalEdgeStyle;rounded=0;orthogonalLoop=1;jettySize=auto;html=1;exitX=1;exitY=0.5;exitDx=0;exitDy=0;entryX=0;entryY=0.5;entryDx=0;entryDy=0;" edge="1" parent="1" source="5tO343UlVwhr0o6HKUXY-3" target="5tO343UlVwhr0o6HKUXY-31">
          <mxGeometry relative="1" as="geometry" />
        </mxCell>
        <mxCell id="5tO343UlVwhr0o6HKUXY-3" value="&lt;font style=&quot;font-size: 25px;&quot;&gt;3&lt;/font&gt;" style="ellipse;whiteSpace=wrap;html=1;aspect=fixed;" vertex="1" parent="1">
          <mxGeometry x="320" y="240" width="80" height="80" as="geometry" />
        </mxCell>
        <mxCell id="5tO343UlVwhr0o6HKUXY-14" style="edgeStyle=orthogonalEdgeStyle;rounded=0;orthogonalLoop=1;jettySize=auto;html=1;exitX=0.5;exitY=1;exitDx=0;exitDy=0;entryX=0.5;entryY=0;entryDx=0;entryDy=0;" edge="1" parent="1" source="5tO343UlVwhr0o6HKUXY-4" target="5tO343UlVwhr0o6HKUXY-5">
          <mxGeometry relative="1" as="geometry" />
        </mxCell>
        <mxCell id="5tO343UlVwhr0o6HKUXY-4" value="&lt;font style=&quot;font-size: 25px;&quot;&gt;4&lt;/font&gt;" style="ellipse;whiteSpace=wrap;html=1;aspect=fixed;" vertex="1" parent="1">
          <mxGeometry x="320" y="360" width="80" height="80" as="geometry" />
        </mxCell>
        <mxCell id="5tO343UlVwhr0o6HKUXY-20" style="edgeStyle=orthogonalEdgeStyle;rounded=0;orthogonalLoop=1;jettySize=auto;html=1;exitX=0.5;exitY=1;exitDx=0;exitDy=0;entryX=0.5;entryY=0;entryDx=0;entryDy=0;" edge="1" parent="1" source="5tO343UlVwhr0o6HKUXY-5" target="5tO343UlVwhr0o6HKUXY-6">
          <mxGeometry relative="1" as="geometry" />
        </mxCell>
        <mxCell id="5tO343UlVwhr0o6HKUXY-29" style="edgeStyle=orthogonalEdgeStyle;rounded=0;orthogonalLoop=1;jettySize=auto;html=1;exitX=1;exitY=0.5;exitDx=0;exitDy=0;entryX=1;entryY=0.5;entryDx=0;entryDy=0;" edge="1" parent="1" source="5tO343UlVwhr0o6HKUXY-5" target="5tO343UlVwhr0o6HKUXY-9">
          <mxGeometry relative="1" as="geometry">
            <Array as="points">
              <mxPoint x="560" y="520" />
              <mxPoint x="560" y="880" />
            </Array>
          </mxGeometry>
        </mxCell>
        <mxCell id="5tO343UlVwhr0o6HKUXY-5" value="&lt;font style=&quot;font-size: 25px;&quot;&gt;5&lt;/font&gt;" style="ellipse;whiteSpace=wrap;html=1;aspect=fixed;" vertex="1" parent="1">
          <mxGeometry x="320" y="480" width="80" height="80" as="geometry" />
        </mxCell>
        <mxCell id="5tO343UlVwhr0o6HKUXY-23" style="edgeStyle=orthogonalEdgeStyle;rounded=0;orthogonalLoop=1;jettySize=auto;html=1;exitX=0.5;exitY=1;exitDx=0;exitDy=0;entryX=0.5;entryY=0;entryDx=0;entryDy=0;" edge="1" parent="1" source="5tO343UlVwhr0o6HKUXY-6" target="5tO343UlVwhr0o6HKUXY-7">
          <mxGeometry relative="1" as="geometry" />
        </mxCell>
        <mxCell id="5tO343UlVwhr0o6HKUXY-24" style="rounded=0;orthogonalLoop=1;jettySize=auto;html=1;exitX=1;exitY=0.5;exitDx=0;exitDy=0;entryX=0;entryY=0;entryDx=0;entryDy=0;" edge="1" parent="1" source="5tO343UlVwhr0o6HKUXY-6" target="5tO343UlVwhr0o6HKUXY-19">
          <mxGeometry relative="1" as="geometry" />
        </mxCell>
        <mxCell id="5tO343UlVwhr0o6HKUXY-6" value="&lt;font style=&quot;font-size: 25px;&quot;&gt;6&lt;/font&gt;" style="ellipse;whiteSpace=wrap;html=1;aspect=fixed;" vertex="1" parent="1">
          <mxGeometry x="320" y="600" width="80" height="80" as="geometry" />
        </mxCell>
        <mxCell id="5tO343UlVwhr0o6HKUXY-33" style="edgeStyle=orthogonalEdgeStyle;rounded=0;orthogonalLoop=1;jettySize=auto;html=1;exitX=0;exitY=0.5;exitDx=0;exitDy=0;entryX=0;entryY=0.5;entryDx=0;entryDy=0;" edge="1" parent="1" source="5tO343UlVwhr0o6HKUXY-7" target="5tO343UlVwhr0o6HKUXY-5">
          <mxGeometry relative="1" as="geometry">
            <Array as="points">
              <mxPoint x="280" y="760" />
              <mxPoint x="280" y="520" />
            </Array>
          </mxGeometry>
        </mxCell>
        <mxCell id="5tO343UlVwhr0o6HKUXY-7" value="&lt;font style=&quot;font-size: 25px;&quot;&gt;7&lt;/font&gt;" style="ellipse;whiteSpace=wrap;html=1;aspect=fixed;" vertex="1" parent="1">
          <mxGeometry x="320" y="720" width="80" height="80" as="geometry" />
        </mxCell>
        <mxCell id="5tO343UlVwhr0o6HKUXY-30" style="edgeStyle=orthogonalEdgeStyle;rounded=0;orthogonalLoop=1;jettySize=auto;html=1;exitX=0;exitY=0.5;exitDx=0;exitDy=0;entryX=0;entryY=0.5;entryDx=0;entryDy=0;" edge="1" parent="1" source="5tO343UlVwhr0o6HKUXY-9" target="5tO343UlVwhr0o6HKUXY-3">
          <mxGeometry relative="1" as="geometry">
            <Array as="points">
              <mxPoint x="240" y="880" />
              <mxPoint x="240" y="280" />
            </Array>
          </mxGeometry>
        </mxCell>
        <mxCell id="5tO343UlVwhr0o6HKUXY-9" value="&lt;font style=&quot;font-size: 25px;&quot;&gt;8&lt;/font&gt;" style="ellipse;whiteSpace=wrap;html=1;aspect=fixed;" vertex="1" parent="1">
          <mxGeometry x="320" y="840" width="80" height="80" as="geometry" />
        </mxCell>
        <mxCell id="5tO343UlVwhr0o6HKUXY-22" style="rounded=0;orthogonalLoop=1;jettySize=auto;html=1;exitX=0;exitY=1;exitDx=0;exitDy=0;entryX=1;entryY=0.5;entryDx=0;entryDy=0;" edge="1" parent="1" source="5tO343UlVwhr0o6HKUXY-19" target="5tO343UlVwhr0o6HKUXY-7">
          <mxGeometry relative="1" as="geometry" />
        </mxCell>
        <mxCell id="5tO343UlVwhr0o6HKUXY-19" value="&lt;font style=&quot;font-size: 25px;&quot;&gt;9&lt;/font&gt;" style="ellipse;whiteSpace=wrap;html=1;aspect=fixed;" vertex="1" parent="1">
          <mxGeometry x="440" y="660" width="80" height="80" as="geometry" />
        </mxCell>
        <mxCell id="5tO343UlVwhr0o6HKUXY-31" value="&lt;font style=&quot;font-size: 25px;&quot;&gt;10&lt;/font&gt;" style="ellipse;whiteSpace=wrap;html=1;aspect=fixed;" vertex="1" parent="1">
          <mxGeometry x="440" y="240" width="80" height="80" as="geometry" />
        </mxCell>
      </root>
    </mxGraphModel>
  </diagram>
</mxfile>
